<svg width="52" height="52" viewBox="0 0 52 52" fill="none" xmlns="http://www.w3.org/2000/svg">
<path d="M2 29.6453C2 24.9849 5.77801 21.2069 10.4384 21.2069V21.2069C11.487 21.2069 12.3371 22.0569 12.3371 23.1055V42.7685C12.3371 47.4289 8.55906 51.2069 3.89865 51.2069V51.2069C2.85005 51.2069 2 50.3568 2 49.3082V29.6453Z" fill="#F9F9F9"/>
<ellipse cx="7.16854" cy="14" rx="5.16854" ry="5" fill="#F9F9F9"/>
<path d="M14.4045 21.4384C14.4045 16.778 18.1825 13 22.8429 13V13C23.8915 13 24.7416 13.8501 24.7416 14.8986V42.5616C24.7416 47.222 20.9636 51 16.3031 51V51C15.2545 51 14.4045 50.1499 14.4045 49.1014V21.4384Z" fill="#F9F9F9"/>
<ellipse cx="19.573" cy="6" rx="5.16854" ry="5" fill="#F9F9F9"/>
<path d="M26.809 14.8986C26.809 13.8501 27.659 13 28.7076 13V13C33.3681 13 37.1461 16.778 37.1461 21.4384V49.1014C37.1461 50.1499 36.296 51 35.2474 51V51C30.587 51 26.809 47.222 26.809 42.5616V14.8986Z" fill="#F9F9F9"/>
<ellipse cx="31.9775" cy="6" rx="5.16854" ry="5" fill="#F9F9F9"/>
<path d="M39.2135 22.9812C39.2135 21.887 40.1005 21 41.1947 21V21C46.0577 21 50 24.9423 50 29.8053V48.8119C50 49.9061 49.113 50.7931 48.0188 50.7931V50.7931C43.1558 50.7931 39.2135 46.8508 39.2135 41.9878V22.9812Z" fill="#F9F9F9"/>
<ellipse cx="44.382" cy="14" rx="5.16854" ry="5" fill="#F9F9F9"/>
</svg>
